# xmcd
#
# Track frame offsets: 
#        150
#        30932
#        53392
#        83480
#        101016
#        119752
#        145985
#        169077
#        184683
#        192041
#        211307
#        230665
#        252668
#        274468
#        292751
#
# Disc length: 4289 seconds
#
# Revision: 1
# Processed by: cddbd v1.5.2PL0 Copyright (c) Steve Scherf et al.
# Submitted via: ExactAudioCopy v1.3
#
DISCID=d210bf0f
DTITLE=Douglas Adams - Per Anhalter durch die Galaxis - vollständige L
DTITLE=esung CD 04
DYEAR=2009
DGENRE=Speech
TTITLE0=47 Per Anhalter durch die Galaxis
TTITLE1=48 Per Anhalter durch die Galaxis
TTITLE2=49 Per Anhalter durch die Galaxis
TTITLE3=50 Per Anhalter durch die Galaxis
TTITLE4=51 Per Anhalter durch die Galaxis
TTITLE5=52 Per Anhalter durch die Galaxis
TTITLE6=53 Per Anhalter durch die Galaxis
TTITLE7=54 Per Anhalter durch die Galaxis
TTITLE8=55 Per Anhalter durch die Galaxis
TTITLE9=56 Per Anhalter durch die Galaxis
TTITLE10=57 Per Anhalter durch die Galaxis
TTITLE11=58 Per Anhalter durch die Galaxis
TTITLE12=59 Per Anhalter durch die Galaxis
TTITLE13=60 Per Anhalter durch die Galaxis
TTITLE14=61 Per Anhalter durch die Galaxis
EXTD=
EXTT0=
EXTT1=
EXTT2=
EXTT3=
EXTT4=
EXTT5=
EXTT6=
EXTT7=
EXTT8=
EXTT9=
EXTT10=
EXTT11=
EXTT12=
EXTT13=
EXTT14=
PLAYORDER=
